<svg width="40" height="40" viewBox="0 0 40 40" fill="none" xmlns="http://www.w3.org/2000/svg">
<rect width="40" height="40" rx="20" fill="#D1E9FF"/>
<path d="M20.0013 20L20.5316 19.4697C20.2387 19.1768 19.7639 19.1768 19.471 19.4697L20.0013 20ZM19.2513 27.5C19.2513 27.9142 19.5871 28.25 20.0013 28.25C20.4155 28.25 20.7513 27.9142 20.7513 27.5H20.0013H19.2513ZM23.3064 15.5814L23.9526 15.2007L23.9526 15.2007L23.3064 15.5814ZM12.9591 23.6906C13.2515 23.9841 13.7264 23.9849 14.0198 23.6926C14.3132 23.4002 14.3141 22.9253 14.0217 22.6319L13.4904 23.1613L12.9591 23.6906ZM16.668 23.3333L17.1983 23.8637L20.5316 20.5303L20.0013 20L19.471 19.4697L16.1376 22.803L16.668 23.3333ZM20.0013 20L19.471 20.5303L22.8043 23.8637L23.3346 23.3333L23.865 22.803L20.5316 19.4697L20.0013 20ZM20.0013 20H19.2513V27.5H20.0013H20.7513V20H20.0013ZM11.668 18.75H12.418C12.418 15.7124 14.8804 13.25 17.918 13.25V12.5V11.75C14.052 11.75 10.918 14.884 10.918 18.75H11.668ZM17.918 12.5V13.25C19.937 13.25 21.7028 14.3375 22.6603 15.9622L23.3064 15.5814L23.9526 15.2007C22.7366 13.1373 20.4897 11.75 17.918 11.75V12.5ZM23.7513 15.8333V16.5833C25.8684 16.5833 27.5846 18.2996 27.5846 20.4167H28.3346H29.0846C29.0846 17.4711 26.6968 15.0833 23.7513 15.0833V15.8333ZM28.3346 20.4167H27.5846C27.5846 21.6068 27.0432 22.6698 26.1904 23.3741L26.668 23.9524L27.1456 24.5307C28.3286 23.5536 29.0846 22.0731 29.0846 20.4167H28.3346ZM13.4904 23.1613L14.0217 22.6319C13.0298 21.6364 12.418 20.2654 12.418 18.75H11.668H10.918C10.918 20.6781 11.6985 22.4254 12.9591 23.6906L13.4904 23.1613ZM23.3064 15.5814L22.6603 15.9622C22.8909 16.3536 23.3103 16.5833 23.7513 16.5833V15.8333V15.0833C23.8281 15.0833 23.9068 15.1231 23.9526 15.2007L23.3064 15.5814Z" fill="#475467"/>
</svg>
